<?xml version="1.0" encoding="utf-8"?>
<!-- Generator: Adobe Illustrator 15.0.0, SVG Export Plug-In . SVG Version: 6.00 Build 0)  -->
<!DOCTYPE svg PUBLIC "-//W3C//DTD SVG 1.1//EN" "http://www.w3.org/Graphics/SVG/1.1/DTD/svg11.dtd">
<svg version="1.1" id="Layer_1" xmlns="http://www.w3.org/2000/svg" xmlns:xlink="http://www.w3.org/1999/xlink" x="0px" y="0px"
	 width="600px" height="600px" viewBox="0 0 600 600" enable-background="new 0 0 600 600" xml:space="preserve">
<g>
	<g>
		<path fill="#555655" d="M191.863,272.53c2.966,1.518,7.521,3.036,12.227,3.036c5.06,0,7.736-2.097,7.736-5.275
			c0-3.042-2.314-4.776-8.171-6.874c-8.104-2.821-13.383-7.309-13.383-14.396c0-8.317,6.943-14.682,18.444-14.682
			c5.496,0,9.548,1.155,12.441,2.459l-2.459,8.897c-1.953-0.943-5.426-2.314-10.201-2.314c-4.773,0-7.086,2.168-7.086,4.701
			c0,3.109,2.748,4.485,9.042,6.872c8.607,3.182,12.657,7.665,12.657,14.537c0,8.174-6.292,15.19-19.674,15.19
			c-5.57,0-11.066-1.519-13.815-3.035L191.863,272.53z"/>
		<path fill="#555655" d="M259.858,275.277c0,3.401,0.145,6.653,0.506,8.609h-9.91l-0.652-3.546h-0.214
			c-2.315,2.822-5.934,4.341-10.131,4.341c-7.158,0-11.427-5.205-11.427-10.852c0-9.187,8.244-13.597,20.759-13.523v-0.508
			c0-1.882-1.014-4.557-6.436-4.557c-3.618,0-7.451,1.229-9.766,2.675l-2.023-7.09c2.454-1.369,7.303-3.107,13.742-3.107
			c11.789,0,15.552,6.944,15.552,15.262V275.277z M249.15,267.177c-5.786-0.072-10.272,1.302-10.272,5.572
			c0,2.817,1.886,4.194,4.341,4.194c2.748,0,4.994-1.808,5.717-4.053c0.143-0.577,0.215-1.229,0.215-1.881V267.177z"/>
		<path fill="#555655" d="M268.104,232.527h10.994v51.359h-10.994V232.527z"/>
		<path fill="#555655" d="M296.023,269.711c0.361,4.554,4.847,6.726,9.982,6.726c3.764,0,6.802-0.51,9.766-1.446l1.447,7.446
			c-3.617,1.45-8.03,2.245-12.805,2.245c-12.008,0-18.879-7.017-18.879-18.085c0-8.97,5.568-18.877,17.865-18.877
			c11.431,0,15.771,8.896,15.771,17.647c0,1.882-0.218,3.544-0.362,4.344H296.023z M308.971,262.183
			c0-2.674-1.157-7.158-6.221-7.158c-4.628,0-6.509,4.196-6.8,7.158H308.971z"/>
		<path fill="#555655" d="M325.249,274.265c2.024,1.229,6.22,2.679,9.473,2.679c3.327,0,4.702-1.158,4.702-2.968
			c0-1.807-1.084-2.676-5.207-4.049c-7.309-2.46-10.126-6.438-10.055-10.56c0-6.656,5.643-11.647,14.395-11.647
			c4.121,0,7.812,0.94,9.98,2.024l-1.951,7.594c-1.591-0.866-4.631-2.025-7.667-2.025c-2.677,0-4.197,1.087-4.197,2.896
			c0,1.661,1.374,2.53,5.716,4.051c6.726,2.314,9.549,5.715,9.621,10.922c0,6.583-5.207,11.501-15.337,11.501
			c-4.629,0-8.75-1.086-11.427-2.53L325.249,274.265z"/>
		<path fill="#555655" d="M357.796,235.712c2.821-0.579,6.294-0.942,10.418-0.942c5.785,0,10.198,1.448,12.875,4.128
			c2.314,2.241,3.761,5.422,3.761,9.544c0,4.197-1.229,7.307-3.396,9.694c-3.112,3.613-8.395,5.498-14.324,5.498
			c-2.172,0-4.195-0.073-5.93-0.579v20.832h-3.403V235.712z M361.199,260.017c1.734,0.505,3.83,0.722,6.219,0.722
			c8.678,0,13.96-4.267,13.96-12.008c0-7.664-5.571-11.065-13.308-11.065c-3.188,0-5.571,0.287-6.871,0.58V260.017z"/>
		<path fill="#555655" d="M412.988,275.641c0,2.748,0.146,5.572,0.506,8.246h-3.11l-0.505-4.99h-0.216
			c-1.665,2.675-5.498,5.785-11.069,5.785c-6.944,0-10.197-4.918-10.197-9.546c0-8.031,7.087-12.877,21.191-12.734v-0.865
			c0-3.473-0.65-10.345-8.897-10.273c-3.034,0-6.223,0.797-8.679,2.606l-1.082-2.533c3.107-2.097,7.014-2.966,10.121-2.966
			c10.057,0,11.938,7.522,11.938,13.742V275.641z M409.588,265.298c-7.595-0.217-17.576,0.938-17.576,9.256
			c0,4.993,3.328,7.236,6.942,7.236c5.79,0,9.044-3.547,10.274-6.943c0.217-0.726,0.359-1.45,0.359-2.098V265.298z"/>
		<path fill="#555655" d="M451.473,278.82c0,8.898-1.81,13.312-4.704,16.062c-3.185,3.035-7.885,4.121-11.788,4.121
			c-3.979,0-8.394-1.009-10.996-2.965l1.228-2.75c2.392,1.521,5.79,2.894,10.272,2.894c7.305,0,12.586-3.833,12.586-14.105v-4.915
			h-0.144c-1.812,3.542-5.858,6.726-12.08,6.726c-8.751,0-14.901-7.595-14.901-17.07c0-12.079,7.958-18.446,15.625-18.446
			c6.872,0,10.271,3.765,11.718,6.654h0.144l0.146-5.858h3.186c-0.146,2.605-0.291,5.353-0.291,8.97V278.82z M448.07,262.475
			c0-1.228-0.144-2.315-0.434-3.325c-1.447-4.195-5.134-7.958-10.777-7.958c-7.379,0-12.442,6.074-12.442,15.26
			c0,7.813,4.123,14.543,12.298,14.543c4.625,0,8.97-2.821,10.707-7.813c0.433-1.156,0.648-2.462,0.648-3.689V262.475z"/>
		<path fill="#555655" d="M463.262,266.168c0,11.137,6.076,15.479,13.237,15.479c5.062,0,7.667-1.016,9.62-1.955l0.868,2.745
			c-1.303,0.727-4.849,2.245-10.923,2.245c-9.984,0-16.201-7.304-16.201-17.505c0-11.574,6.654-18.807,15.621-18.807
			c11.354,0,13.526,10.707,13.526,15.694c0,0.944,0,1.523-0.144,2.104H463.262z M485.395,263.417
			c0.07-4.848-1.951-12.226-10.346-12.226c-7.666,0-10.991,6.872-11.572,12.226H485.395z"/>
	</g>
	<g>
		<path fill="#555655" d="M494.787,234.479v0.854h-2.545v6.671h-1.001v-6.671h-2.543v-0.854H494.787z M502.947,242.005l-0.359-5.119
			c-0.024-0.442-0.056-0.995-0.082-1.605h-0.055c-0.193,0.441-0.418,1.218-0.611,1.8l-1.738,4.812h-1.136l-1.774-4.951
			c-0.139-0.472-0.414-1.188-0.551-1.66h-0.057c0,0.5-0.028,1.02-0.055,1.605l-0.359,5.119h-0.998l0.61-7.525h1.468l1.769,4.811
			c0.222,0.557,0.36,1.079,0.526,1.577h0.055c0.166-0.524,0.361-1.131,0.473-1.52l1.768-4.868h1.491l0.669,7.525H502.947z"/>
	</g>
</g>
<g>
	<path fill="#555655" d="M148.598,259.935l-6.242-6.245h-15.819l14.171,14.17l0.016-0.015c2.138,2.148,3.461,5.106,3.461,8.369
		c0,6.549-5.325,11.875-11.874,11.875c-3.166,0-6.144-1.234-8.39-3.482L90,250.729v15.813l26.028,25.958
		c4.357,4.356,10.14,6.754,16.284,6.754c12.704,0,23.042-10.333,23.042-23.04C155.354,269.865,152.771,264.106,148.598,259.935
		L148.598,259.935z"/>
	<path fill="#555655" d="M171,257.675l-25.953-25.919c-4.357-4.357-10.14-6.756-16.286-6.756c-12.704,0-23.04,10.336-23.04,23.042
		c0,6.342,2.575,12.091,6.734,16.26l-0.018,0.02l6.247,6.242h15.812l-14.145-14.144l0.004-0.003
		c-2.141-2.147-3.467-5.108-3.467-8.375c0-6.548,5.326-11.875,11.873-11.875c3.166,0,6.146,1.238,8.39,3.483L171,273.518V257.675z"
		/>
</g>
</svg>
